<svg width="24" height="24" viewBox="0 0 24 24" fill="none" xmlns="http://www.w3.org/2000/svg">
<path d="M6.15595 9.323L6.15395 9.325L6.14995 9.328L6.13995 9.336C6.09651 9.36889 6.05447 9.40358 6.01395 9.44C5.90887 9.53231 5.8081 9.62942 5.71195 9.731C5.47195 9.984 5.16395 10.36 4.87495 10.863C4.29295 11.878 3.80395 13.391 4.07895 15.414C4.34995 17.411 5.18895 19.08 6.60695 20.244C8.02095 21.404 9.93495 22 12.2499 22C14.6369 22 16.5429 21.105 17.8039 19.57C19.0539 18.049 19.6119 15.974 19.4789 13.706C19.3509 11.53 18.1659 9.879 17.1189 8.421L16.8199 8.004C15.6779 6.392 14.7769 4.907 14.9959 2.829C15.007 2.72442 14.996 2.61867 14.9635 2.51863C14.9311 2.41859 14.878 2.32649 14.8076 2.24831C14.7373 2.17014 14.6513 2.10763 14.5552 2.06485C14.4591 2.02207 14.3551 1.99998 14.2499 2C13.8679 2 13.4299 2.118 13.0079 2.296C12.5192 2.50542 12.0581 2.7741 11.6349 3.096C10.7099 3.794 9.78495 4.846 9.29195 6.252C8.79995 7.654 9.04995 8.99 9.40995 9.963C9.64695 10.602 9.38995 11.233 9.00295 11.417C8.83828 11.4949 8.64988 11.5061 8.47713 11.4484C8.30437 11.3906 8.16063 11.2683 8.07595 11.107L7.26995 9.576C7.2195 9.47995 7.14882 9.396 7.06278 9.32992C6.97674 9.26384 6.87739 9.21721 6.77158 9.19326C6.66577 9.1693 6.55602 9.16858 6.44991 9.19115C6.3438 9.21373 6.24385 9.25905 6.15695 9.324L6.15595 9.323Z" fill="#FF8C00"/>
<path d="M9.25187 13.3938L9.25071 13.395L9.24838 13.3968L9.24258 13.4016C9.21735 13.4213 9.19294 13.4421 9.16941 13.464C9.10838 13.5194 9.04986 13.5777 8.99403 13.6386C8.85465 13.7904 8.67579 14.016 8.50796 14.3178C8.16998 14.9268 7.88601 15.8346 8.04571 17.0484C8.20308 18.2466 8.69031 19.248 9.51378 19.9464C10.3349 20.6424 11.4464 21 12.7908 21C14.177 21 15.2838 20.463 16.0161 19.542C16.742 18.6294 17.0661 17.3844 16.9889 16.0236C16.9145 14.718 16.2264 13.7274 15.6183 12.8526L15.4447 12.6024C14.7815 11.6352 14.2583 10.7442 14.3855 9.4974C14.3919 9.43465 14.3855 9.3712 14.3666 9.31118C14.3478 9.25115 14.317 9.19589 14.2761 9.14899C14.2352 9.10208 14.1853 9.06458 14.1295 9.03891C14.0737 9.01324 14.0133 8.99999 13.9522 9C13.7304 9 13.4761 9.0708 13.231 9.1776C12.9472 9.30325 12.6794 9.46446 12.4337 9.6576C11.8965 10.0764 11.3593 10.7076 11.073 11.5512C10.7873 12.3924 10.9325 13.194 11.1415 13.7778C11.2792 14.1612 11.1299 14.5398 10.9052 14.6502C10.8096 14.6969 10.7002 14.7037 10.5998 14.669C10.4995 14.6344 10.416 14.561 10.3669 14.4642L9.8988 13.5456C9.8695 13.488 9.82845 13.4376 9.77849 13.398C9.72852 13.3583 9.67083 13.3303 9.60938 13.316C9.54793 13.3016 9.4842 13.3011 9.42258 13.3147C9.36096 13.3282 9.30291 13.3554 9.25245 13.3944L9.25187 13.3938Z" fill="#FFDAB9"/>
</svg>
