<svg width="24" height="24" viewBox="0 0 24 24" fill="none" xmlns="http://www.w3.org/2000/svg">
<path d="M21.6328 6.64689C21.3187 5.91948 20.8657 5.2603 20.2992 4.70627C19.7323 4.15058 19.064 3.70898 18.3305 3.40549C17.5699 3.08953 16.7541 2.92781 15.9305 2.9297C14.775 2.9297 13.6477 3.24611 12.668 3.84377C12.4336 3.98674 12.2109 4.14377 12 4.31486C11.7891 4.14377 11.5664 3.98674 11.332 3.84377C10.3523 3.24611 9.225 2.9297 8.06953 2.9297C7.2375 2.9297 6.43125 3.08908 5.66953 3.40549C4.93359 3.71017 4.27031 4.14845 3.70078 4.70627C3.13359 5.25968 2.6805 5.91901 2.36719 6.64689C2.04141 7.40392 1.875 8.20783 1.875 9.03517C1.875 9.81564 2.03438 10.6289 2.35078 11.4563C2.61563 12.1477 2.99531 12.8649 3.48047 13.5891C4.24922 14.7352 5.30625 15.9305 6.61875 17.1422C8.79375 19.1508 10.9477 20.5383 11.0391 20.5945L11.5945 20.9508C11.8406 21.1078 12.157 21.1078 12.4031 20.9508L12.9586 20.5945C13.05 20.536 15.2016 19.1508 17.3789 17.1422C18.6914 15.9305 19.7484 14.7352 20.5172 13.5891C21.0023 12.8649 21.3844 12.1477 21.6469 11.4563C21.9633 10.6289 22.1227 9.81564 22.1227 9.03517C22.125 8.20783 21.9586 7.40392 21.6328 6.64689Z" fill="#FF2400"/>
<path d="M19.4454 9C19.7517 9 20.0039 8.75054 19.9616 8.44719C19.9148 8.11199 19.8256 7.78333 19.6955 7.46927C19.4945 6.98396 19.1999 6.54301 18.8284 6.17157C18.457 5.80014 18.016 5.5055 17.5307 5.30448C17.2167 5.17439 16.888 5.08516 16.5528 5.03838C16.2495 4.99605 16 5.2483 16 5.55458C16 5.86087 16.2505 6.1038 16.5512 6.1622C16.7409 6.19905 16.9269 6.25491 17.1063 6.32922C17.457 6.4745 17.7757 6.68744 18.0441 6.95587C18.3126 7.22431 18.5255 7.543 18.6708 7.89373C18.7451 8.07312 18.801 8.25911 18.8378 8.44881C18.8962 8.74948 19.1391 9 19.4454 9Z" fill="#FCFAF9"/>
</svg>
