<svg width="24" height="24" viewBox="0 0 24 24" fill="none" xmlns="http://www.w3.org/2000/svg">
<path fill-rule="evenodd" clip-rule="evenodd" d="M11.1515 2.75161C11.3765 2.52665 11.6817 2.40027 11.9999 2.40027C12.3181 2.40027 12.6233 2.52665 12.8483 2.75161L21.2483 11.1516C21.4161 11.3194 21.5303 11.5332 21.5766 11.766C21.6229 11.9987 21.5991 12.24 21.5083 12.4592C21.4175 12.6784 21.2637 12.8658 21.0664 12.9977C20.8691 13.1296 20.6372 13.2 20.3999 13.2H19.1999V20.4C19.1999 20.7183 19.0735 21.0235 18.8484 21.2485C18.6234 21.4736 18.3182 21.6 17.9999 21.6H15.5999C15.2816 21.6 14.9764 21.4736 14.7514 21.2485C14.5263 21.0235 14.3999 20.7183 14.3999 20.4V16.8C14.3999 16.4818 14.2735 16.1765 14.0484 15.9515C13.8234 15.7264 13.5182 15.6 13.1999 15.6H10.7999C10.4816 15.6 10.1764 15.7264 9.95136 15.9515C9.72632 16.1765 9.59989 16.4818 9.59989 16.8V20.4C9.59989 20.7183 9.47346 21.0235 9.24842 21.2485C9.02337 21.4736 8.71815 21.6 8.39989 21.6H5.99989C5.68163 21.6 5.37641 21.4736 5.15136 21.2485C4.92632 21.0235 4.79989 20.7183 4.79989 20.4V13.2H3.59989C3.36259 13.2 3.13063 13.1296 2.93334 12.9977C2.73605 12.8658 2.58228 12.6784 2.49148 12.4592C2.40067 12.24 2.37691 11.9987 2.42319 11.766C2.46947 11.5332 2.58372 11.3194 2.75149 11.1516L11.1515 2.75161Z" fill="black"/>
</svg>
